<svg id="visual" viewBox="0 0 1900 1080" width="1900" height="1080" xmlns="http://www.w3.org/2000/svg" xmlns:xlink="http://www.w3.org/1999/xlink" version="1.1"><rect x="0" y="0" width="1900" height="1080" fill="#ace0fd"></rect><path d="M0 456L190 548L380 495L570 529L760 523L950 469L1140 431L1330 485L1520 472L1710 458L1900 496L1900 1081L1710 1081L1520 1081L1330 1081L1140 1081L950 1081L760 1081L570 1081L380 1081L190 1081L0 1081Z" fill="#f5730a"></path><path d="M0 602L190 641L380 574L570 509L760 628L950 613L1140 565L1330 585L1520 559L1710 641L1900 579L1900 1081L1710 1081L1520 1081L1330 1081L1140 1081L950 1081L760 1081L570 1081L380 1081L190 1081L0 1081Z" fill="#ce5108"></path><path d="M0 660L190 632L380 641L570 689L760 616L950 606L1140 623L1330 629L1520 652L1710 639L1900 586L1900 1081L1710 1081L1520 1081L1330 1081L1140 1081L950 1081L760 1081L570 1081L380 1081L190 1081L0 1081Z" fill="#a63005"></path><path d="M0 762L190 688L380 730L570 723L760 705L950 714L1140 663L1330 699L1520 645L1710 770L1900 752L1900 1081L1710 1081L1520 1081L1330 1081L1140 1081L950 1081L760 1081L570 1081L380 1081L190 1081L0 1081Z" fill="#871400"></path><path d="M0 785L190 741L380 839L570 821L760 827L950 818L1140 821L1330 811L1520 721L1710 765L1900 778L1900 1081L1710 1081L1520 1081L1330 1081L1140 1081L950 1081L760 1081L570 1081L380 1081L190 1081L0 1081Z" fill="#871400"></path><path d="M0 898L190 819L380 813L570 830L760 906L950 878L1140 873L1330 833L1520 834L1710 821L1900 853L1900 1081L1710 1081L1520 1081L1330 1081L1140 1081L950 1081L760 1081L570 1081L380 1081L190 1081L0 1081Z" fill="#a63005"></path><path d="M0 918L190 923L380 944L570 882L760 913L950 885L1140 939L1330 886L1520 947L1710 919L1900 878L1900 1081L1710 1081L1520 1081L1330 1081L1140 1081L950 1081L760 1081L570 1081L380 1081L190 1081L0 1081Z" fill="#ce5108"></path><path d="M0 983L190 1008L380 1008L570 969L760 962L950 1009L1140 1030L1330 984L1520 977L1710 985L1900 1000L1900 1081L1710 1081L1520 1081L1330 1081L1140 1081L950 1081L760 1081L570 1081L380 1081L190 1081L0 1081Z" fill="#f5730a"></path></svg>