<svg id="visual" viewBox="0 0 1920 1080" width="1920" height="1080" xmlns="http://www.w3.org/2000/svg" xmlns:xlink="http://www.w3.org/1999/xlink" version="1.1"><rect x="0" y="0" width="1920" height="1080" fill="#6be0ff"></rect><path d="M0 502L240 436L480 510L720 503L960 563L1200 523L1440 437L1680 510L1920 524L1920 1081L1680 1081L1440 1081L1200 1081L960 1081L720 1081L480 1081L240 1081L0 1081Z" fill="#f5730a"></path><path d="M0 547L240 683L480 545L720 568L960 560L1200 602L1440 629L1680 574L1920 594L1920 1081L1680 1081L1440 1081L1200 1081L960 1081L720 1081L480 1081L240 1081L0 1081Z" fill="#da5b09"></path><path d="M0 768L240 724L480 773L720 732L960 763L1200 784L1440 783L1680 718L1920 737L1920 1081L1680 1081L1440 1081L1200 1081L960 1081L720 1081L480 1081L240 1081L0 1081Z" fill="#be4407"></path><path d="M0 838L240 830L480 793L720 798L960 775L1200 831L1440 850L1680 856L1920 824L1920 1081L1680 1081L1440 1081L1200 1081L960 1081L720 1081L480 1081L240 1081L0 1081Z" fill="#a32d04"></path><path d="M0 908L240 907L480 958L720 974L960 896L1200 953L1440 919L1680 954L1920 897L1920 1081L1680 1081L1440 1081L1200 1081L960 1081L720 1081L480 1081L240 1081L0 1081Z" fill="#871400"></path></svg>