<svg id="visual" viewBox="0 0 1900 1080" width="1900" height="1080" xmlns="http://www.w3.org/2000/svg" xmlns:xlink="http://www.w3.org/1999/xlink" version="1.1"><path d="M0 23L24.3 30.2C48.7 37.3 97.3 51.7 146 51.7C194.7 51.7 243.3 37.3 292 35.5C340.7 33.7 389.3 44.3 438.2 44.3C487 44.3 536 33.7 584.8 28.3C633.7 23 682.3 23 731 24.7C779.7 26.3 828.3 29.7 877 36.8C925.7 44 974.3 55 1023 58.7C1071.7 62.3 1120.3 58.7 1169 51.5C1217.7 44.3 1266.3 33.7 1315.2 35.5C1364 37.3 1413 51.7 1461.8 58.8C1510.7 66 1559.3 66 1608 66C1656.7 66 1705.3 66 1754 66C1802.7 66 1851.3 66 1875.7 66L1900 66L1900 0L1875.7 0C1851.3 0 1802.7 0 1754 0C1705.3 0 1656.7 0 1608 0C1559.3 0 1510.7 0 1461.8 0C1413 0 1364 0 1315.2 0C1266.3 0 1217.7 0 1169 0C1120.3 0 1071.7 0 1023 0C974.3 0 925.7 0 877 0C828.3 0 779.7 0 731 0C682.3 0 633.7 0 584.8 0C536 0 487 0 438.2 0C389.3 0 340.7 0 292 0C243.3 0 194.7 0 146 0C97.3 0 48.7 0 24.3 0L0 0Z" fill="#0b112c"></path><path d="M0 98L24.3 126.8C48.7 155.7 97.3 213.3 146 236.8C194.7 260.3 243.3 249.7 292 235.3C340.7 221 389.3 203 438.2 195.7C487 188.3 536 191.7 584.8 191.7C633.7 191.7 682.3 188.3 731 177.7C779.7 167 828.3 149 877 149C925.7 149 974.3 167 1023 186.7C1071.7 206.3 1120.3 227.7 1169 231.2C1217.7 234.7 1266.3 220.3 1315.2 222.2C1364 224 1413 242 1461.8 242C1510.7 242 1559.3 224 1608 206C1656.7 188 1705.3 170 1754 162.8C1802.7 155.7 1851.3 159.3 1875.7 161.2L1900 163L1900 64L1875.7 64C1851.3 64 1802.7 64 1754 64C1705.3 64 1656.7 64 1608 64C1559.3 64 1510.7 64 1461.8 56.8C1413 49.7 1364 35.3 1315.2 33.5C1266.3 31.7 1217.7 42.3 1169 49.5C1120.3 56.7 1071.7 60.3 1023 56.7C974.3 53 925.7 42 877 34.8C828.3 27.7 779.7 24.3 731 22.7C682.3 21 633.7 21 584.8 26.3C536 31.7 487 42.3 438.2 42.3C389.3 42.3 340.7 31.7 292 33.5C243.3 35.3 194.7 49.7 146 49.7C97.3 49.7 48.7 35.3 24.3 28.2L0 21Z" fill="#0d1a40"></path><path d="M0 141L24.3 178.8C48.7 216.7 97.3 292.3 146 315.8C194.7 339.3 243.3 310.7 292 290.8C340.7 271 389.3 260 438.2 254.5C487 249 536 249 584.8 243.7C633.7 238.3 682.3 227.7 731 220.5C779.7 213.3 828.3 209.7 877 211.5C925.7 213.3 974.3 220.7 1023 235.2C1071.7 249.7 1120.3 271.3 1169 278.5C1217.7 285.7 1266.3 278.3 1315.2 289C1364 299.7 1413 328.3 1461.8 324.7C1510.7 321 1559.3 285 1608 256.3C1656.7 227.7 1705.3 206.3 1754 202.8C1802.7 199.3 1851.3 213.7 1875.7 220.8L1900 228L1900 161L1875.7 159.2C1851.3 157.3 1802.7 153.7 1754 160.8C1705.3 168 1656.7 186 1608 204C1559.3 222 1510.7 240 1461.8 240C1413 240 1364 222 1315.2 220.2C1266.3 218.3 1217.7 232.7 1169 229.2C1120.3 225.7 1071.7 204.3 1023 184.7C974.3 165 925.7 147 877 147C828.3 147 779.7 165 731 175.7C682.3 186.3 633.7 189.7 584.8 189.7C536 189.7 487 186.3 438.2 193.7C389.3 201 340.7 219 292 233.3C243.3 247.7 194.7 258.3 146 234.8C97.3 211.3 48.7 153.7 24.3 124.8L0 96Z" fill="#0e2355"></path><path d="M0 249L24.3 288.7C48.7 328.3 97.3 407.7 146 429.3C194.7 451 243.3 415 292 389.8C340.7 364.7 389.3 350.3 438.2 354C487 357.7 536 379.3 584.8 388.3C633.7 397.3 682.3 393.7 731 375.7C779.7 357.7 828.3 325.3 877 312.7C925.7 300 974.3 307 1023 321.3C1071.7 335.7 1120.3 357.3 1169 361C1217.7 364.7 1266.3 350.3 1315.2 372C1364 393.7 1413 451.3 1461.8 445.8C1510.7 440.3 1559.3 371.7 1608 339.2C1656.7 306.7 1705.3 310.3 1754 321.2C1802.7 332 1851.3 350 1875.7 359L1900 368L1900 226L1875.7 218.8C1851.3 211.7 1802.7 197.3 1754 200.8C1705.3 204.3 1656.7 225.7 1608 254.3C1559.3 283 1510.7 319 1461.8 322.7C1413 326.3 1364 297.7 1315.2 287C1266.3 276.3 1217.7 283.7 1169 276.5C1120.3 269.3 1071.7 247.7 1023 233.2C974.3 218.7 925.7 211.3 877 209.5C828.3 207.7 779.7 211.3 731 218.5C682.3 225.7 633.7 236.3 584.8 241.7C536 247 487 247 438.2 252.5C389.3 258 340.7 269 292 288.8C243.3 308.7 194.7 337.3 146 313.8C97.3 290.3 48.7 214.7 24.3 176.8L0 139Z" fill="#0e2c6b"></path><path d="M0 303L24.3 340.8C48.7 378.7 97.3 454.3 146 486.8C194.7 519.3 243.3 508.7 292 497.8C340.7 487 389.3 476 438.2 479.5C487 483 536 501 584.8 501C633.7 501 682.3 483 731 465C779.7 447 828.3 429 877 412.8C925.7 396.7 974.3 382.3 1023 396.8C1071.7 411.3 1120.3 454.7 1169 469.2C1217.7 483.7 1266.3 469.3 1315.2 480.2C1364 491 1413 527 1461.8 516.2C1510.7 505.3 1559.3 447.7 1608 422.3C1656.7 397 1705.3 404 1754 422C1802.7 440 1851.3 469 1875.7 483.5L1900 498L1900 366L1875.7 357C1851.3 348 1802.7 330 1754 319.2C1705.3 308.3 1656.7 304.7 1608 337.2C1559.3 369.7 1510.7 438.3 1461.8 443.8C1413 449.3 1364 391.7 1315.2 370C1266.3 348.3 1217.7 362.7 1169 359C1120.3 355.3 1071.7 333.7 1023 319.3C974.3 305 925.7 298 877 310.7C828.3 323.3 779.7 355.7 731 373.7C682.3 391.7 633.7 395.3 584.8 386.3C536 377.3 487 355.7 438.2 352C389.3 348.3 340.7 362.7 292 387.8C243.3 413 194.7 449 146 427.3C97.3 405.7 48.7 326.3 24.3 286.7L0 247Z" fill="#0d3582"></path><path d="M0 681L24.3 691.8C48.7 702.7 97.3 724.3 146 724.3C194.7 724.3 243.3 702.7 292 697.3C340.7 692 389.3 703 438.2 708.5C487 714 536 714 584.8 696C633.7 678 682.3 642 731 638.3C779.7 634.7 828.3 663.3 877 679.5C925.7 695.7 974.3 699.3 1023 690.3C1071.7 681.3 1120.3 659.7 1169 647C1217.7 634.3 1266.3 630.7 1315.2 639.7C1364 648.7 1413 670.3 1461.8 668.7C1510.7 667 1559.3 642 1608 645.7C1656.7 649.3 1705.3 681.7 1754 685.2C1802.7 688.7 1851.3 663.3 1875.7 650.7L1900 638L1900 496L1875.7 481.5C1851.3 467 1802.7 438 1754 420C1705.3 402 1656.7 395 1608 420.3C1559.3 445.7 1510.7 503.3 1461.8 514.2C1413 525 1364 489 1315.2 478.2C1266.3 467.3 1217.7 481.7 1169 467.2C1120.3 452.7 1071.7 409.3 1023 394.8C974.3 380.3 925.7 394.7 877 410.8C828.3 427 779.7 445 731 463C682.3 481 633.7 499 584.8 499C536 499 487 481 438.2 477.5C389.3 474 340.7 485 292 495.8C243.3 506.7 194.7 517.3 146 484.8C97.3 452.3 48.7 376.7 24.3 338.8L0 301Z" fill="#0b3f9a"></path><path d="M0 768L24.3 769.8C48.7 771.7 97.3 775.3 146 771.7C194.7 768 243.3 757 292 757C340.7 757 389.3 768 438.2 777C487 786 536 793 584.8 775C633.7 757 682.3 714 731 705C779.7 696 828.3 721 877 737.2C925.7 753.3 974.3 760.7 1023 749.8C1071.7 739 1120.3 710 1169 701C1217.7 692 1266.3 703 1315.2 717.5C1364 732 1413 750 1461.8 746.3C1510.7 742.7 1559.3 717.3 1608 720.8C1656.7 724.3 1705.3 756.7 1754 754.8C1802.7 753 1851.3 717 1875.7 699L1900 681L1900 636L1875.7 648.7C1851.3 661.3 1802.7 686.7 1754 683.2C1705.3 679.7 1656.7 647.3 1608 643.7C1559.3 640 1510.7 665 1461.8 666.7C1413 668.3 1364 646.7 1315.2 637.7C1266.3 628.7 1217.7 632.3 1169 645C1120.3 657.7 1071.7 679.3 1023 688.3C974.3 697.3 925.7 693.7 877 677.5C828.3 661.3 779.7 632.7 731 636.3C682.3 640 633.7 676 584.8 694C536 712 487 712 438.2 706.5C389.3 701 340.7 690 292 695.3C243.3 700.7 194.7 722.3 146 722.3C97.3 722.3 48.7 700.7 24.3 689.8L0 679Z" fill="#0748b2"></path><path d="M0 951L24.3 954.7C48.7 958.3 97.3 965.7 146 965.7C194.7 965.7 243.3 958.3 292 956.5C340.7 954.7 389.3 958.3 438.2 967.3C487 976.3 536 990.7 584.8 987.2C633.7 983.7 682.3 962.3 731 951.7C779.7 941 828.3 941 877 946.3C925.7 951.7 974.3 962.3 1023 955C1071.7 947.7 1120.3 922.3 1169 920.5C1217.7 918.7 1266.3 940.3 1315.2 960.2C1364 980 1413 998 1461.8 998C1510.7 998 1559.3 980 1608 969.2C1656.7 958.3 1705.3 954.7 1754 956.5C1802.7 958.3 1851.3 965.7 1875.7 969.3L1900 973L1900 679L1875.7 697C1851.3 715 1802.7 751 1754 752.8C1705.3 754.7 1656.7 722.3 1608 718.8C1559.3 715.3 1510.7 740.7 1461.8 744.3C1413 748 1364 730 1315.2 715.5C1266.3 701 1217.7 690 1169 699C1120.3 708 1071.7 737 1023 747.8C974.3 758.7 925.7 751.3 877 735.2C828.3 719 779.7 694 731 703C682.3 712 633.7 755 584.8 773C536 791 487 784 438.2 775C389.3 766 340.7 755 292 755C243.3 755 194.7 766 146 769.7C97.3 773.3 48.7 769.7 24.3 767.8L0 766Z" fill="#0452cb"></path><path d="M0 1016L24.3 1019.7C48.7 1023.3 97.3 1030.7 146 1030.7C194.7 1030.7 243.3 1023.3 292 1019.7C340.7 1016 389.3 1016 438.2 1019.7C487 1023.3 536 1030.7 584.8 1032.5C633.7 1034.3 682.3 1030.7 731 1028.8C779.7 1027 828.3 1027 877 1027C925.7 1027 974.3 1027 1023 1018C1071.7 1009 1120.3 991 1169 987.3C1217.7 983.7 1266.3 994.3 1315.2 1007C1364 1019.7 1413 1034.3 1461.8 1041.7C1510.7 1049 1559.3 1049 1608 1043.5C1656.7 1038 1705.3 1027 1754 1025.2C1802.7 1023.3 1851.3 1030.7 1875.7 1034.3L1900 1038L1900 971L1875.7 967.3C1851.3 963.7 1802.7 956.3 1754 954.5C1705.3 952.7 1656.7 956.3 1608 967.2C1559.3 978 1510.7 996 1461.8 996C1413 996 1364 978 1315.2 958.2C1266.3 938.3 1217.7 916.7 1169 918.5C1120.3 920.3 1071.7 945.7 1023 953C974.3 960.3 925.7 949.7 877 944.3C828.3 939 779.7 939 731 949.7C682.3 960.3 633.7 981.7 584.8 985.2C536 988.7 487 974.3 438.2 965.3C389.3 956.3 340.7 952.7 292 954.5C243.3 956.3 194.7 963.7 146 963.7C97.3 963.7 48.7 956.3 24.3 952.7L0 949Z" fill="#015ce5"></path><path d="M0 1081L24.3 1081C48.7 1081 97.3 1081 146 1081C194.7 1081 243.3 1081 292 1081C340.7 1081 389.3 1081 438.2 1081C487 1081 536 1081 584.8 1081C633.7 1081 682.3 1081 731 1081C779.7 1081 828.3 1081 877 1081C925.7 1081 974.3 1081 1023 1081C1071.7 1081 1120.3 1081 1169 1081C1217.7 1081 1266.3 1081 1315.2 1081C1364 1081 1413 1081 1461.8 1081C1510.7 1081 1559.3 1081 1608 1081C1656.7 1081 1705.3 1081 1754 1081C1802.7 1081 1851.3 1081 1875.7 1081L1900 1081L1900 1036L1875.7 1032.3C1851.3 1028.7 1802.7 1021.3 1754 1023.2C1705.3 1025 1656.7 1036 1608 1041.5C1559.3 1047 1510.7 1047 1461.8 1039.7C1413 1032.3 1364 1017.7 1315.2 1005C1266.3 992.3 1217.7 981.7 1169 985.3C1120.3 989 1071.7 1007 1023 1016C974.3 1025 925.7 1025 877 1025C828.3 1025 779.7 1025 731 1026.8C682.3 1028.7 633.7 1032.3 584.8 1030.5C536 1028.7 487 1021.3 438.2 1017.7C389.3 1014 340.7 1014 292 1017.7C243.3 1021.3 194.7 1028.7 146 1028.7C97.3 1028.7 48.7 1021.3 24.3 1017.7L0 1014Z" fill="#0066ff"></path></svg>